<svg width="136" height="34" viewBox="0 0 136 34" fill="none" xmlns="http://www.w3.org/2000/svg">
<path d="M16.4553 0H18.1904C21.8092 0.179053 25.3614 1.49178 28.1788 3.73296C31.0515 5.99325 33.1678 9.16994 34.0892 12.6715C34.6406 14.7045 34.7697 16.837 34.5442 18.9263C34.1169 22.787 32.2731 26.4778 29.4281 29.1766C26.4508 32.0656 22.3667 33.7998 18.1883 34H16.4491C12.8293 33.8209 9.27609 32.5072 6.45872 30.265C3.58499 28.0037 1.46864 24.824 0.54933 21.3204C0.239819 20.1867 0.0748154 19.0199 0 17.85V16.145C0.0737906 15.0334 0.222397 13.9249 0.506285 12.8456C1.40407 9.27456 3.54195 6.02846 6.46385 3.73095C9.28224 1.48976 12.8355 0.178047 16.4553 0Z" fill="white"/>
<path d="M91.0083 9.63164C92.8162 9.63164 94.6251 9.63164 96.4339 9.63164C97.9856 9.61353 99.6059 9.68697 101.012 10.4022C102.326 11.0238 103.328 12.2541 103.603 13.6654C103.861 14.9841 103.739 16.4337 102.996 17.5895C102.472 18.4294 101.642 19.049 100.731 19.4393C101.825 20.9713 102.918 22.5054 104.009 24.0404C102.781 24.0424 101.552 24.0404 100.324 24.0414C99.3886 22.7055 98.4335 21.3818 97.5008 20.0449C96.4637 20.0409 95.4265 20.0439 94.3904 20.0429C94.3904 21.3757 94.3904 22.7086 94.3904 24.0414C93.263 24.0414 92.1357 24.0414 91.0083 24.0414C91.0083 19.2381 91.0083 14.4349 91.0083 9.63164ZM94.3904 12.3728C94.3904 14.0496 94.3904 15.7255 94.3904 17.4023C95.2451 17.4013 96.1009 17.4034 96.9566 17.4023C97.6781 17.3883 98.4335 17.339 99.0802 16.9889C100.651 16.2204 100.686 13.6573 99.1652 12.8194C98.5585 12.4774 97.8452 12.3868 97.1565 12.3728C96.2341 12.3718 95.3117 12.3738 94.3904 12.3728Z" fill="white"/>
<path d="M114.068 9.6568C117.757 9.6568 121.447 9.6568 125.136 9.6568C125.136 10.5541 125.136 11.4514 125.136 12.3476C122.566 12.3476 119.995 12.3476 117.424 12.3476C117.424 13.3958 117.424 14.443 117.424 15.4911C119.696 15.4911 121.967 15.4911 124.24 15.4911C124.24 16.3542 124.24 17.2183 124.24 18.0814C121.967 18.0814 119.696 18.0814 117.424 18.0814C117.424 19.1708 117.424 20.2602 117.424 21.3506C120.081 21.3506 122.736 21.3506 125.393 21.3506C125.393 22.2469 125.393 23.1441 125.393 24.0414C121.618 24.0414 117.842 24.0414 114.068 24.0414C114.068 19.2462 114.068 14.452 114.068 9.6568Z" fill="white"/>
<path d="M46.2472 11.0912C48.093 9.90928 50.4256 9.60851 52.5665 10.0099C54.1315 10.2986 55.6114 11.0782 56.6516 12.2722C55.9363 12.9341 55.2291 13.604 54.5066 14.2569C53.7994 13.4682 52.8484 12.8707 51.7825 12.6987C50.3231 12.4482 48.713 12.8355 47.6482 13.8766C45.9582 15.5474 45.9602 18.5602 47.6533 20.229C48.793 21.3355 50.5475 21.7067 52.0838 21.3375C53.0349 21.1132 53.8773 20.5469 54.5086 19.8216C55.2271 20.4583 55.9342 21.1072 56.6527 21.7439C55.6237 23.0033 54.0956 23.8191 52.4866 24.1028C50.6592 24.4307 48.7089 24.2567 47.0302 23.4469C45.5236 22.7327 44.2743 21.4864 43.6235 19.9674C43.0055 18.5632 42.8969 16.9718 43.192 15.479C43.5579 13.6925 44.6802 12.07 46.2472 11.0912Z" fill="white"/>
<path d="M71.4846 9.93847C73.2002 9.69605 75.0029 9.90327 76.5699 10.6497C78.0529 11.3498 79.293 12.5539 79.9704 14.0316C80.6305 15.4529 80.7678 17.0825 80.4552 18.6065C80.1109 20.2884 79.0901 21.8204 77.6645 22.8112C76.1395 23.8916 74.2138 24.3482 72.3506 24.2436C70.6565 24.1702 68.9706 23.5968 67.6536 22.5356C66.4412 21.5689 65.5793 20.1918 65.2482 18.694C64.8075 16.7123 65.1693 14.5315 66.3971 12.8778C67.5737 11.2502 69.4881 10.2181 71.4846 9.93847ZM71.7818 12.741C70.557 12.9985 69.4574 13.8113 68.9142 14.9248C67.9529 16.8099 68.3915 19.4042 70.1891 20.6606C72.0083 21.9642 74.8523 21.6896 76.2748 19.9383C77.8018 18.0784 77.561 14.9852 75.5932 13.5115C74.5284 12.7027 73.0833 12.4533 71.7818 12.741Z" fill="white"/>
<path d="M43.3878 28.0289C44.0058 27.7925 45.0286 27.8428 45.1905 28.6274C44.9856 28.6435 44.8011 28.6204 44.7252 28.4172C44.4639 28.0621 43.9074 28.0782 43.5384 28.2452C43.3202 28.3206 43.2751 28.6455 43.4749 28.7652C43.9668 29.0791 44.633 28.9936 45.0942 29.3678C45.2715 29.5136 45.2776 29.7631 45.2182 29.9663C45.0583 30.3063 44.6494 30.4129 44.3009 30.4421C43.726 30.5075 43.0045 30.257 42.8825 29.6343C42.9738 29.6323 43.1551 29.6293 43.2453 29.6273C43.3929 30.2489 44.2097 30.3586 44.7088 30.092C44.9364 29.9854 45.0091 29.6192 44.7703 29.4865C44.2671 29.1968 43.5979 29.2782 43.1521 28.8789C42.8692 28.6184 43.0311 28.1325 43.3878 28.0289Z" fill="white"/>
<path d="M55.8358 27.9645C55.965 27.9645 56.0951 27.9645 56.2263 27.9645C56.543 28.3709 56.8566 28.7803 57.1702 29.1887C57.4756 28.7793 57.7862 28.3729 58.0926 27.9635C58.191 27.9635 58.3857 27.9645 58.4831 27.9645C58.1008 28.4463 57.7206 28.9282 57.3352 29.407C57.3383 29.7309 57.3373 30.0548 57.3383 30.3787C57.2491 30.3787 57.0718 30.3787 56.9827 30.3787C56.9827 30.0488 56.9847 29.7198 56.9776 29.3909C56.5902 28.9201 56.2161 28.4393 55.8358 27.9645Z" fill="white"/>
<path d="M69.73 28.0279C70.347 27.7935 71.3524 27.8438 71.5307 28.6153C71.4436 28.6153 71.2693 28.6163 71.1833 28.6163C71.0019 28.0732 70.2476 28.0188 69.8161 28.2844C69.6378 28.3789 69.6439 28.6687 69.8161 28.7672C70.308 29.0791 70.9742 28.9936 71.4354 29.3698C71.7223 29.6283 71.5963 30.1302 71.2509 30.2801C70.5683 30.6231 69.4226 30.4833 69.2227 29.6343C69.3129 29.6323 69.4943 29.6293 69.5845 29.6273C69.731 30.2499 70.5499 30.3586 71.049 30.091C71.2745 29.9834 71.3472 29.6223 71.1115 29.4875C70.6073 29.1958 69.935 29.2792 69.4892 28.8769C69.2073 28.6153 69.3723 28.1305 69.73 28.0279Z" fill="white"/>
<path d="M82.5777 27.9645C83.3966 27.9645 84.2155 27.9645 85.0353 27.9645C85.0364 28.0268 85.0384 28.1526 85.0395 28.216C84.6879 28.2109 84.3364 28.2119 83.9859 28.2129C83.9828 28.9352 83.9849 29.6564 83.9849 30.3787C83.8957 30.3787 83.7184 30.3787 83.6292 30.3787C83.6292 29.6564 83.6292 28.9342 83.6292 28.2129C83.2777 28.2119 82.9262 28.2119 82.5767 28.2129C82.5767 28.1506 82.5767 28.0268 82.5777 27.9645Z" fill="white"/>
<path d="M95.9 27.9645C96.6072 27.9645 97.3154 27.9645 98.0236 27.9645C98.0246 28.0268 98.0277 28.1516 98.0297 28.2139C97.4312 28.2109 96.8327 28.2139 96.2352 28.2119C96.2341 28.4825 96.2341 28.7531 96.2352 29.0247C96.7978 29.0227 97.3605 29.0257 97.9241 29.0217C97.9252 29.078 97.9272 29.1907 97.9283 29.247C97.3635 29.244 96.7988 29.246 96.2352 29.245C96.2341 29.5468 96.2341 29.8486 96.2352 30.1513C96.8583 30.1503 97.4824 30.1503 98.1066 30.1503C98.1066 30.2077 98.1076 30.3213 98.1076 30.3787C97.3717 30.3787 96.6359 30.3787 95.9 30.3787C95.9 29.5739 95.9 28.7692 95.9 27.9645Z" fill="white"/>
<path d="M109.018 27.9645C109.164 27.9645 109.31 27.9645 109.458 27.9645C109.798 28.6545 110.134 29.3466 110.482 30.0326C110.812 29.3355 111.173 28.6535 111.519 27.9645C111.659 27.9645 111.8 27.9645 111.943 27.9645C111.942 28.7692 111.942 29.5739 111.943 30.3787C111.859 30.3787 111.692 30.3787 111.608 30.3787C111.605 29.7228 111.613 29.067 111.603 28.4121C111.287 29.074 110.968 29.7349 110.645 30.3938C110.532 30.3897 110.425 30.3726 110.322 30.3425C110.008 29.6896 109.681 29.0428 109.354 28.397C109.351 29.0579 109.353 29.7178 109.353 30.3787C109.269 30.3787 109.102 30.3787 109.018 30.3787C109.018 29.5739 109.018 28.7692 109.018 27.9645Z" fill="white"/>
<path d="M123.439 28.0248C124.056 27.7935 125.072 27.8468 125.233 28.6264C125.024 28.6445 124.84 28.6203 124.765 28.4141C124.519 28.0741 124.001 28.0882 123.64 28.215C123.427 28.2763 123.306 28.5278 123.452 28.7109C123.934 29.0941 124.653 28.9724 125.133 29.3647C125.426 29.6222 125.301 30.1312 124.953 30.2801C124.269 30.6221 123.126 30.4823 122.926 29.6343C123.016 29.6323 123.197 29.6293 123.288 29.6273C123.434 30.2479 124.248 30.3576 124.747 30.094C124.974 29.9884 125.052 29.6263 124.817 29.4884C124.313 29.1957 123.641 29.2802 123.194 28.8789C122.907 28.6153 123.077 28.1254 123.439 28.0248Z" fill="white"/>
</svg>
