<svg width="100" height="100" viewBox="0 0 100 100" fill="none" xmlns="http://www.w3.org/2000/svg">
<path d="M90.1969 10.5077C90.1637 10.3474 90.0854 10.1999 89.9712 10.0826C89.857 9.96531 89.7117 9.88306 89.5524 9.84554C78.9313 7.24789 54.3961 16.5037 41.0895 29.8006C38.718 32.1527 36.5555 34.7066 34.6266 37.4334C30.5251 37.0623 26.4235 37.3748 22.9313 38.8983C13.07 43.2342 10.2008 54.5584 9.40006 59.4197C9.35667 59.6861 9.37521 59.9589 9.45422 60.217C9.53323 60.475 9.67061 60.7114 9.85569 60.9078C10.0408 61.1043 10.2686 61.2554 10.5215 61.3496C10.7744 61.4438 11.0456 61.4785 11.3141 61.451L27.1481 59.7127C27.1591 60.907 27.2308 62.0999 27.3629 63.2869C27.4456 64.1074 27.8116 64.8733 28.3981 65.4529L34.529 71.5838C35.1091 72.1707 35.8758 72.5368 36.6969 72.619C37.8768 72.7505 39.0625 72.8223 40.2497 72.8338L38.5133 88.6541C38.4862 88.9223 38.5211 89.193 38.6154 89.4455C38.7096 89.698 38.8606 89.9255 39.0568 90.1103C39.2529 90.2951 39.4889 90.4323 39.7466 90.5114C40.0042 90.5905 40.2766 90.6092 40.5426 90.5662C45.4059 89.785 56.7536 86.9158 61.0641 77.0565C62.5875 73.5604 62.9 69.4803 62.5485 65.3983C65.2834 63.4711 67.8446 61.3086 70.2028 58.9354C83.5582 45.6541 92.7555 21.658 90.1969 10.5077ZM58.3317 41.7303C57.1651 40.564 56.3707 39.078 56.0487 37.4602C55.7268 35.8424 55.8918 34.1654 56.523 32.6414C57.1541 31.1174 58.2231 29.8148 59.5946 28.8983C60.9661 27.9818 62.5786 27.4926 64.2282 27.4926C65.8777 27.4926 67.4902 27.9818 68.8617 28.8983C70.2332 29.8148 71.3022 31.1174 71.9334 32.6414C72.5645 34.1654 72.7296 35.8424 72.4076 37.4602C72.0857 39.078 71.2912 40.564 70.1246 41.7303C69.3509 42.5057 68.4318 43.1209 67.42 43.5406C66.4082 43.9603 65.3236 44.1764 64.2282 44.1764C63.1328 44.1764 62.0481 43.9603 61.0363 43.5406C60.0245 43.1209 59.1054 42.5057 58.3317 41.7303V41.7303Z" stroke="black" stroke-width="1.5" stroke-linecap="round" stroke-linejoin="round"/>
<path d="M21.4141 68.751C19.467 68.99 17.6556 69.8726 16.2676 71.2588C12.8262 74.7119 12.5 87.501 12.5 87.501C12.5 87.501 25.2969 87.1748 28.7402 83.7295C30.132 82.3436 31.0161 80.5292 31.25 78.5791" stroke="black" stroke-width="1.5" stroke-linecap="round" stroke-linejoin="round"/>
</svg>
