<svg width="100" height="100" viewBox="0 0 100 100" fill="none" xmlns="http://www.w3.org/2000/svg">
<path d="M43.1816 12.5029C37.1134 12.5029 31.1814 14.3024 26.1358 17.6737C21.0903 21.0451 17.1577 25.8369 14.8355 31.4432C12.5133 37.0495 11.9057 43.2186 13.0896 49.1703C14.2734 55.1219 17.1956 60.5888 21.4865 64.8798C25.7774 69.1707 31.2443 72.0928 37.196 73.2767C43.1476 74.4605 49.3167 73.8529 54.923 71.5307C60.5293 69.2085 65.3211 65.2759 68.6925 60.2304C72.0638 55.1848 73.8633 49.2528 73.8633 43.1846C73.8627 35.0474 70.6301 27.2438 64.8763 21.4899C59.1224 15.7361 51.3188 12.5034 43.1816 12.5029V12.5029Z" stroke="black" stroke-width="1.5" stroke-miterlimit="10"/>
<path d="M66.0715 66.0725L87.4993 87.5002" stroke="black" stroke-width="1.5" stroke-miterlimit="10" stroke-linecap="round"/>
</svg>
