<svg width="100" height="100" viewBox="0 0 100 100" fill="none" xmlns="http://www.w3.org/2000/svg">
<path d="M67.3922 56.6248L67.8247 57.3744L68.5052 56.8396C72.0644 54.0424 74.9412 50.4727 76.9181 46.4003C78.7857 42.5532 79.8041 38.3526 79.9079 34.0833H86.743C86.6346 39.5849 85.2901 44.9952 82.8052 49.912C80.2076 55.052 76.4366 59.5084 71.7974 62.9208L71.2565 63.3186L71.5923 63.9L82.1256 82.1416C83.1311 83.8833 83.4036 85.9532 82.8831 87.8958C82.4277 89.5955 81.3979 91.0759 79.981 92.0932L65.6787 67.3249L65.3433 66.7439L64.7286 67.0128C60.0848 69.0444 55.0698 70.0899 50.0011 70.0832L49.9991 70.0833C44.9303 70.0899 39.9153 69.0444 35.2715 67.0128L34.6569 66.7439L34.3214 67.3249L20.0192 92.0932C18.6022 91.0759 17.5724 89.5955 17.117 87.8958C16.5965 85.9532 16.869 83.8833 17.8746 82.1416L17.2251 81.7666L17.8746 82.1416L38.9704 45.5999L39.2607 45.0971L38.8467 44.6901C36.8371 42.7142 35.3878 40.2403 34.6469 37.5211C33.906 34.8018 33.9 31.9347 34.6295 29.2124C35.3591 26.4901 36.798 24.0102 38.7994 22.0258C40.8008 20.0415 43.2929 18.6239 46.0213 17.9177L46.5834 17.7722V17.1916V9.08325H53.4167V17.1916V17.7722L53.9788 17.9177C56.7073 18.6239 59.1994 20.0415 61.2008 22.0258C63.2022 24.0102 64.6411 26.4901 65.3706 29.2124C66.1002 31.9347 66.0942 34.8018 65.3533 37.5211C64.6124 40.2403 63.1631 42.7142 61.1534 44.6901L60.7395 45.0971L61.0297 45.5998L67.3922 56.6248ZM61.1115 61.1215L61.9161 60.8002L61.483 60.05L55.1163 49.0208L54.8259 48.5177L54.2661 48.6731C51.4776 49.4472 48.5309 49.4472 45.7424 48.6731L45.1826 48.5177L44.8922 49.0208L38.5255 60.05L38.0924 60.8002L38.897 61.1215C42.3336 62.4935 46.0779 63.2499 50.0042 63.2499C53.9264 63.2499 57.6748 62.4936 61.1115 61.1215ZM50.0001 42.4166C52.4091 42.4166 54.7195 41.4596 56.423 39.7561C58.1264 38.0527 59.0834 35.7423 59.0834 33.3333C59.0834 30.9242 58.1264 28.6138 56.423 26.9104C54.7195 25.2069 52.4091 24.2499 50.0001 24.2499C47.591 24.2499 45.2807 25.2069 43.5772 26.9104C41.8737 28.6138 40.9167 30.9242 40.9167 33.3333C40.9167 35.7423 41.8737 38.0527 43.5772 39.7561C45.2807 41.4596 47.591 42.4166 50.0001 42.4166Z" stroke="black" stroke-width="1.5"/>
</svg>
