<svg width="22" height="22" viewBox="0 0 22 22" fill="none" xmlns="http://www.w3.org/2000/svg">
<g clip-path="url(#clip0)">
<path d="M21.8834 16.06C21.8567 16.0025 21.8319 15.9549 21.8088 15.9168C21.4271 15.2293 20.6977 14.3855 19.621 13.3851L19.5983 13.3622L19.5869 13.351L19.5754 13.3395H19.5638C19.0751 12.8736 18.7657 12.5604 18.6361 12.4001C18.399 12.0946 18.3459 11.7854 18.4755 11.4721C18.567 11.2354 18.9109 10.7355 19.5064 9.97173C19.8196 9.56697 20.0677 9.24256 20.2509 8.99815C21.572 7.2417 22.1448 6.11931 21.9691 5.63053L21.9009 5.51631C21.855 5.44755 21.7367 5.38464 21.546 5.32727C21.3548 5.27002 21.1105 5.26055 20.8127 5.2987L17.5138 5.32149C17.4604 5.30255 17.3841 5.30432 17.2847 5.32727C17.1854 5.35022 17.1357 5.36173 17.1357 5.36173L17.0783 5.39042L17.0327 5.42488C16.9945 5.44767 16.9525 5.48775 16.9067 5.54504C16.8611 5.60213 16.8229 5.66913 16.7924 5.74548C16.4333 6.66947 16.0249 7.52856 15.5666 8.32269C15.2841 8.79622 15.0246 9.20661 14.7876 9.55409C14.5509 9.90144 14.3524 10.1574 14.1921 10.3214C14.0317 10.4856 13.8868 10.6172 13.7568 10.7166C13.6269 10.816 13.5277 10.858 13.4591 10.8426C13.3903 10.8272 13.3255 10.812 13.2642 10.7968C13.1573 10.728 13.0714 10.6345 13.0066 10.5161C12.9415 10.3978 12.8977 10.2488 12.8748 10.0693C12.852 9.88977 12.8385 9.73531 12.8347 9.60544C12.8311 9.47573 12.8328 9.29227 12.8405 9.05556C12.8484 8.81873 12.852 8.65849 12.852 8.57448C12.852 8.28426 12.8577 7.96928 12.869 7.62946C12.8806 7.28965 12.8899 7.0204 12.8977 6.82205C12.9055 6.6235 12.9091 6.41343 12.9091 6.19197C12.9091 5.97051 12.8957 5.79683 12.869 5.67077C12.8427 5.54488 12.8023 5.42267 12.7491 5.3042C12.6955 5.18584 12.6171 5.09429 12.5142 5.0293C12.4112 4.96438 12.283 4.91287 12.1305 4.8746C11.7258 4.783 11.2103 4.73345 10.584 4.72575C9.16376 4.71051 8.25115 4.80222 7.84643 5.00077C7.68607 5.08466 7.54095 5.19928 7.41121 5.34428C7.27372 5.51234 7.25454 5.60405 7.3538 5.61914C7.81204 5.68778 8.13645 5.85199 8.32738 6.11161L8.39619 6.24918C8.44971 6.34844 8.50315 6.52416 8.55663 6.77611C8.61003 7.02807 8.64449 7.30678 8.65965 7.61209C8.69777 8.16963 8.69777 8.6469 8.65965 9.04392C8.62142 9.44111 8.58531 9.75031 8.55085 9.97177C8.51639 10.1932 8.46487 10.3727 8.39619 10.5101C8.32738 10.6476 8.2816 10.7316 8.25866 10.7621C8.23575 10.7925 8.21665 10.8118 8.20149 10.8193C8.10223 10.8573 7.999 10.8767 7.89216 10.8767C7.78516 10.8767 7.65542 10.8232 7.50272 10.7162C7.35006 10.6093 7.19163 10.4624 7.02742 10.2752C6.86321 10.0881 6.67802 9.82654 6.47176 9.49058C6.26567 9.15461 6.05183 8.75755 5.83037 8.29938L5.64714 7.96711C5.5326 7.75335 5.37613 7.4421 5.17758 7.03364C4.9789 6.62502 4.8033 6.22976 4.65064 5.84794C4.58962 5.68758 4.49795 5.5655 4.37578 5.48149L4.31845 5.44702C4.28034 5.41653 4.21916 5.38416 4.13523 5.34965C4.05117 5.31519 3.96347 5.29048 3.87176 5.27527L0.733229 5.29806C0.412512 5.29806 0.194902 5.37072 0.0803198 5.51583L0.0344629 5.58447C0.0115545 5.62271 0 5.68377 0 5.76782C0 5.85183 0.0229084 5.95494 0.0687653 6.07703C0.526933 7.15384 1.02518 8.19234 1.56351 9.19269C2.10184 10.193 2.56963 10.9988 2.96662 11.6094C3.36368 12.2204 3.76841 12.797 4.1808 13.339C4.59319 13.8812 4.86617 14.2287 4.99973 14.3814C5.13345 14.5343 5.23848 14.6487 5.31483 14.725L5.60124 14.9999C5.78451 15.1832 6.05363 15.4027 6.40873 15.6585C6.76391 15.9144 7.15713 16.1663 7.58858 16.4147C8.0201 16.6627 8.52212 16.8651 9.09491 17.0216C9.66762 17.1783 10.225 17.2411 10.7673 17.2108H12.0846C12.3517 17.1877 12.5541 17.1037 12.6917 16.9587L12.7373 16.9013C12.7679 16.8557 12.7966 16.7849 12.8231 16.6896C12.8499 16.5942 12.8632 16.489 12.8632 16.3747C12.8554 16.0464 12.8804 15.7505 12.9375 15.487C12.9946 15.2237 13.0597 15.0251 13.1324 14.8914C13.2052 14.7578 13.2873 14.6451 13.3786 14.5537C13.4702 14.4621 13.5354 14.4066 13.5737 14.3875C13.6117 14.3683 13.6421 14.3553 13.665 14.3474C13.8483 14.2864 14.0639 14.3455 14.3124 14.5251C14.5606 14.7046 14.7934 14.9262 15.0112 15.1895C15.2288 15.4531 15.4903 15.7488 15.7957 16.0771C16.1013 16.4055 16.3685 16.6497 16.5975 16.8103L16.8265 16.9477C16.9795 17.0394 17.178 17.1234 17.4224 17.1998C17.6664 17.2761 17.8801 17.2952 18.0637 17.257L20.9959 17.2113C21.2859 17.2113 21.5116 17.1633 21.6717 17.068C21.8321 16.9726 21.9274 16.8674 21.9581 16.753C21.9888 16.6385 21.9904 16.5086 21.9639 16.3634C21.9368 16.2185 21.91 16.1172 21.8834 16.06Z" fill="#262626"/>
</g>
<defs>
<clipPath id="clip0">
<rect width="22" height="22" fill="white"/>
</clipPath>
</defs>
</svg>
